<?xml version="1.0" encoding="UTF-8"?>
<svg width="99px" height="49px" viewBox="0 0 99 49" version="1.1" xmlns="http://www.w3.org/2000/svg" xmlns:xlink="http://www.w3.org/1999/xlink">
    <!-- Generator: Sketch 48.2 (47327) - http://www.bohemiancoding.com/sketch -->
    <title>Group</title>
    <desc>Created with Sketch.</desc>
    <defs>
        <linearGradient x1="0%" y1="103.020134%" x2="84.588671%" y2="11.2401633%" id="linearGradient-1">
            <stop stop-color="#F3361B" offset="0%"></stop>
            <stop stop-color="#EC6432" offset="1.24412934%"></stop>
            <stop stop-color="#F5AD58" offset="100%"></stop>
        </linearGradient>
    </defs>
    <g id="Rectangle-4" stroke="none" stroke-width="1" fill="none" fill-rule="evenodd">
        <g id="Group">
            <rect id="Rectangle-4" fill="url(#linearGradient-1)" x="0" y="0" width="99" height="49"></rect>
            <text id="购彩篮" font-family="PingFangSC-Regular, PingFang SC" font-size="15" font-weight="normal" fill="#FFFFFF">
                <tspan x="40" y="32">购彩篮</tspan>
            </text>
            <g id="购物车" transform="translate(13.000000, 16.000000)" fill="#FFFFFF">
                <path d="M23.761063,3.91146488 C23.231235,5.05026561 20.8934192,10.5334997 20.5746654,11.0412443 C20.5373336,11.1011778 20.5032695,11.1606104 20.4706234,11.2165046 C20.1603162,11.7570341 19.8324067,12.1704631 18.6997517,12.1704631 L7.90466326,12.1704631 C8.13152104,12.868655 8.60188331,13.7302707 9.58197425,13.7302707 L18.9273185,13.7302707 C19.2041781,13.7302707 19.427799,13.9581373 19.427799,14.2387354 C19.427799,14.5192083 19.2041781,14.746981 18.9273185,14.746981 L9.58209756,14.746981 C8.19511767,14.746981 7.18324383,13.6437835 6.80462347,11.9537127 C6.59620039,11.0216735 4.06716316,2.42471117 3.88614551,1.75110027 C3.69181049,1.3233611 3.24059195,1.01586486 2.8019201,1.01586486 L0.50044967,1.01586486 C0.224206631,1.01586486 0,0.787841686 0,0.507494047 C0,0.227021154 0.22432994,0 0.50044967,0 L2.80179679,0 C3.66002759,0 4.46995208,0.046625448 4.81867,0.872731941 C4.82770239,0.894651225 4.83531672,0.915787677 4.84203706,0.93952313 C4.94127,1.30892569 7.03823241,8.86215432 7.63625035,11.1548801 L18.6996284,11.1548801 C19.3485729,11.1548801 19.4137109,11.0419645 19.6063813,10.7047519 C19.6456244,10.6372092 19.6856073,10.5677564 19.7306459,10.4955794 C20.0276049,10.0220915 22.3479416,4.57076562 22.8427499,3.51087431 C23.0487993,2.96267303 23.0110975,2.66432026 22.9544987,2.57968051 C22.9169203,2.52563382 22.797588,2.49247307 22.6342035,2.49247307 C21.5499473,2.50850546 7.80891381,2.49319328 7.33195451,2.49247307 C7.05509492,2.49175287 6.83147401,2.26460646 6.83221386,1.98413357 C6.8330462,1.70290916 7.0565438,1.47663952 7.33266353,1.47663952 L7.33340339,1.47663952 C7.45091689,1.47663952 21.5439051,1.49364262 22.6274523,1.47663952 C23.2865082,1.47663952 23.6175313,1.76393871 23.7802067,2.00527002 C24.0796935,2.44832137 24.0729424,3.09049376 23.761063,3.91146488 Z M9.33710674,15 C10.6258093,15 11.674306,16.0649014 11.674306,17.3740776 C11.674306,18.6830973 10.6258093,19.7489694 9.33710674,19.7489694 C8.04837331,19.7489694 7,18.6830973 7,17.3740776 C7.00073985,16.0659974 8.04837331,15 9.33710674,15 Z M17.3371067,15 C18.6258093,15 19.674306,16.0649014 19.674306,17.3740776 C19.674306,18.6830973 18.6258093,19.7489694 17.3371067,19.7489694 C16.0483733,19.7489694 15,18.6830973 15,17.3740776 C15.0007399,16.0659974 16.0483733,15 17.3371067,15 Z M9.3754505,18.7966814 C10.1344484,18.7966814 10.7518258,18.1688192 10.7518258,17.3979806 C10.7518258,16.6270168 10.1344484,16 9.3754505,16 C8.61740828,16 8,16.627142 8,17.3979806 C8,18.1690697 8.61740828,18.7966814 9.3754505,18.7966814 Z M17.3754505,18.7966814 C18.1344484,18.7966814 18.7518258,18.1688192 18.7518258,17.3979806 C18.7518258,16.6270168 18.1344484,16 17.3754505,16 C16.6174083,16 16,16.627142 16,17.3979806 C16,18.1690697 16.6174083,18.7966814 17.3754505,18.7966814 Z" id="Fill-1"></path>
            </g>
        </g>
    </g>
</svg>