<?xml version="1.0" encoding="UTF-8"?>
<svg width="17px" height="18px" viewBox="0 0 17 18" version="1.1" xmlns="http://www.w3.org/2000/svg" xmlns:xlink="http://www.w3.org/1999/xlink">
    <!-- Generator: Sketch 51 (57462) - http://www.bohemiancoding.com/sketch -->
    <title>清除</title>
    <desc>Created with Sketch.</desc>
    <defs></defs>
    <g id="Symbols" stroke="none" stroke-width="1" fill="none" fill-rule="evenodd">
        <g id="1/清除" transform="translate(-6.000000, 0.000000)" fill="#999999">
            <g id="清除" transform="translate(6.000000, 0.000000)">
                <path d="M16.0844405,1.84649157 L11.5648185,1.84649157 L11.5648185,0.398477528 C11.5648185,0.177952247 11.3841435,0 11.1603467,0 L5.33067037,0 C5.10687359,0 4.92619857,0.177952247 4.92619857,0.398477528 L4.92619857,1.84649157 L0.404574472,1.84649157 C0.180675023,1.84649157 0,2.02444382 0,2.2449691 L0,4.89036236 C0,5.11078652 0.180675023,5.28873876 0.404574472,5.28873876 L2.39220506,5.28873876 L2.39220506,17.6015225 C2.39220506,17.8220478 2.57288009,18 2.79677954,18 L6.48671844,18 C6.71059222,18 6.89126724,17.8220478 6.89126724,17.6015225 C6.89126724,17.3811236 6.71059222,17.2031461 6.48671844,17.2031461 L3.20125134,17.2031461 L3.20125134,5.2908118 L13.2835542,5.2908118 L13.2835542,7.61260955 C13.2835542,7.83303371 13.4642292,8.01098596 13.688103,8.01098596 C13.9118997,8.01098596 14.0925748,7.83303371 14.0925748,7.61260955 L14.0925748,5.2908118 L16.080308,5.2908118 C16.3041048,5.2908118 16.4847798,5.11275843 16.4847798,4.89235955 L16.4847798,2.24694101 C16.4888867,2.02651685 16.3082116,1.84649157 16.0844405,1.84649157 Z M15.677864,4.49398315 L0.811151025,4.49398315 L0.811151025,2.64739045 L5.33067037,2.64739045 C5.55444148,2.64739045 5.73521917,2.4694382 5.73521917,2.24901404 L5.73521917,0.800898876 L10.7537702,0.800898876 L10.7537702,2.24694101 C10.7537702,2.46746629 10.9344452,2.64541854 11.158242,2.64541854 L15.677864,2.64541854 L15.677864,4.49398315 Z" id="Fill-1"></path>
                <path d="M13.455986,13.9997858 L16.8759328,10.6789973 C17.0358186,10.5237461 17.0358186,10.2717149 16.8759328,10.1164384 C16.716047,9.96118719 16.4564921,9.96118719 16.2966063,10.1164384 L12.8767634,13.4372521 L9.45681656,10.1185051 C9.29693076,9.96325385 9.0373759,9.96325385 8.8774901,10.1185051 C8.71760431,10.2737815 8.71760431,10.5258127 8.8774901,10.6810639 L12.2974109,14.0017768 L8.8774901,17.3204986 C8.71760431,17.4757499 8.71760431,17.7277811 8.8774901,17.8830575 C8.95849718,17.9617165 9.06231912,18 9.1681656,18 C9.27411589,18 9.37793784,17.9617165 9.45884109,17.8830575 L12.8787879,14.5623446 L16.2987347,17.8830575 C16.3796379,17.9617165 16.4834599,18 16.5894102,18 C16.6952566,18 16.7990786,17.9617165 16.8800857,17.8830575 C17.0399714,17.7277811 17.0399714,17.4757499 16.8800857,17.3204986 L13.455986,13.9997858 Z" id="Fill-3"></path>
            </g>
        </g>
    </g>
</svg>