<?xml version="1.0" encoding="UTF-8"?>
<svg width="110px" height="30px" viewBox="0 0 110 30" version="1.1" xmlns="http://www.w3.org/2000/svg" xmlns:xlink="http://www.w3.org/1999/xlink">
    <!-- Generator: Sketch 48.2 (47327) - http://www.bohemiancoding.com/sketch -->
    <title>摇一摇机选</title>
    <desc>Created with Sketch.</desc>
    <defs>
        <rect id="path-1" x="0" y="0" width="110" height="30" rx="5"></rect>
        <filter x="-6.4%" y="-16.7%" width="112.7%" height="146.7%" filterUnits="objectBoundingBox" id="filter-2">
            <feOffset dx="0" dy="2" in="SourceAlpha" result="shadowOffsetOuter1"></feOffset>
            <feGaussianBlur stdDeviation="2" in="shadowOffsetOuter1" result="shadowBlurOuter1"></feGaussianBlur>
            <feColorMatrix values="0 0 0 0 1   0 0 0 0 0.898323867   0 0 0 0 0.816662721  0 0 0 1 0" type="matrix" in="shadowBlurOuter1"></feColorMatrix>
        </filter>
        <linearGradient x1="50%" y1="100%" x2="50%" y2="0%" id="linearGradient-3">
            <stop stop-color="#F74511" offset="0%"></stop>
            <stop stop-color="#F98A6A" offset="100%"></stop>
        </linearGradient>
    </defs>
    <g id="摇一摇机选" stroke="none" stroke-width="1" fill="none" fill-rule="evenodd">
        <g>
            <g id="Rectangle-4">
                <g>
                    <use fill="black" fill-opacity="1" filter="url(#filter-2)" xlink:href="#path-1"></use>
                    <use fill="#FFFFFF" fill-rule="evenodd" xlink:href="#path-1"></use>
                </g>
            </g>
            <path d="M23.3799377,10.2047409 L16.247842,6.16774358 C16.247842,6.16774358 15.2329041,5.57181973 14.6119771,6.62640359 L7.22713855,19.1552942 C7.22713855,19.1552942 6.52267889,20.1341453 7.59499953,20.7411021 L14.8282277,24.8353672 C14.8282277,24.8353672 15.8112568,25.4125379 16.404271,24.4055139 L23.8085016,11.8320881 C23.8085016,11.8320881 24.4519352,10.8115825 23.3799377,10.2047409 Z M18.2528041,8 L20,9.39450749 L19.7471959,10 L18,8.60535389 L18.2528041,8 Z M17.3194109,8.02846285 C17.4211942,8.08715806 17.4562773,8.21670106 17.3972489,8.31881638 C17.3382205,8.42084731 17.2079481,8.45570155 17.1061648,8.39711183 C17.004614,8.3385221 16.9697,8.20847276 17.0287284,8.10644183 C17.0877568,8.0044109 17.2177756,7.96995752 17.3193264,8.02846285 L17.3194109,8.02846285 Z M12.2493655,21.93336 C12.0105057,21.7956947 11.9290238,21.4897828 12.0674339,21.2505847 C12.2055212,21.0117583 12.5118853,20.9289113 12.7507451,21.0665518 C12.9897042,21.2042171 13.0707889,21.5105008 12.9326768,21.749228 C12.7943909,21.9885253 12.4883246,22.0710253 12.2493655,21.93336 Z M16.1335275,22 L9,17.9621894 L14.8664725,8 L22,12.0379245 L16.1335275,22 Z M24.673996,8 L24,9.10348367 C24.7642494,9.5158274 25.3098807,10.1860284 25.5388097,10.9891918 C25.7696311,11.7955577 25.6527521,12.6373042 25.2058904,13.363948 L26.375203,14 C26.9966981,12.9833515 27.1618689,11.7955577 26.8377595,10.6603268 C26.5183488,9.5286987 25.7494987,8.58339663 24.673996,8.00012317 L24.673996,8 Z M29.7047609,9.8952153 C29.1060005,7.81481195 27.6776843,6.08102583 25.6752563,5 L25,6.09055095 C26.6894485,6.99708132 27.8954034,8.46443777 28.4007015,10.2197391 C28.9015537,11.9712365 28.6410426,13.8030736 27.6652946,15.3726806 L28.831694,16 C29.9896592,14.1377007 30.299435,11.9696845 29.7046301,9.89533703 L29.7047609,9.8952153 Z" id="摇一摇" fill="url(#linearGradient-3)"></path>
            <text font-family="PingFangSC-Regular, PingFang SC" font-size="12" font-weight="normal" fill="#E93D04">
                <tspan x="37" y="20">摇一摇机选</tspan>
            </text>
        </g>
    </g>
</svg>